# xmcd
#
# Track frame offsets: 
#        150
#        11790
#        25115
#        35612
#        47320
#        61085
#        76110
#        89307
#        103575
#        117037
#        127260
#
# Disc length: 1888 seconds
#
# Revision: 0
# Processed by: cddbd v1.4PL0 Copyright (c) Steve Scherf et al.
# Submitted via: ExactAudioCopy v0.90b3
#
DISCID=7e075e0b
DTITLE=George Jones - In A Gospel Way
DYEAR=1900
DGENRE=Country
TTITLE0=In A Gospel Way
TTITLE1=Why Me, Lord
TTITLE2=A Man I Always Wanted To Meet
TTITLE3=The Baptism Of Jesse Taylor
TTITLE4=Release Me (From My Sin)
TTITLE5=Amazing Grace
TTITLE6=Mama's Hands
TTITLE7=God Keeps The Wild Flowers Blooming
TTITLE8=Mama Was A Preacher Man
TTITLE9=I Wonder How John Felt (When He Baptized Jesus)
TTITLE10=I Can't Find It Here
EXTD=
EXTT0=
EXTT1=
EXTT2=
EXTT3=
EXTT4=
EXTT5=
EXTT6=
EXTT7=
EXTT8=
EXTT9=
EXTT10=
PLAYORDER=
